<svg xmlns="http://www.w3.org/2000/svg" width="757.7745361328125" height="857.7105712890625" viewBox="-254.57937622070312 -356.67755126953125 757.7745361328125 857.7105712890625"><title>Neo4j Graph Visualization</title><desc>Created using Neo4j (http://www.neo4j.com/)</desc><g class="layer relationships"><g class="relationship" transform="translate(325.71028563345186 284.2438889671159) rotate(428.0904642745322)"><path class="outline" fill="#A5ABB6" stroke="none" d="M 25 0.5 L 26.44448379290855 0.5 L 26.44448379290855 -0.5 L 25 -0.5 Z M 75.11635879290856 0.5 L 76.5608425858171 0.5 L 76.5608425858171 3.5 L 83.5608425858171 0 L 76.5608425858171 -3.5 L 76.5608425858171 -0.5 L 75.11635879290856 -0.5 Z"/><text text-anchor="middle" pointer-events="none" font-size="8px" fill="#000000" x="50.78042129290855" y="3" font-family="sans-serif">OWNS_S…</text></g><g class="relationship" transform="translate(325.71028563345186 284.2438889671159) rotate(516.8922856106453)"><path class="outline" fill="#A5ABB6" stroke="none" d="M 25 0.5 L 29.631189201020497 0.5 L 29.631189201020497 -0.5 L 25 -0.5 Z M 83.6390017010205 0.5 L 88.270190902041 0.5 L 88.270190902041 3.5 L 95.270190902041 0 L 88.270190902041 -3.5 L 88.270190902041 -0.5 L 83.6390017010205 -0.5 Z"/><text text-anchor="middle" pointer-events="none" font-size="8px" fill="#000000" x="56.6350954510205" y="3" transform="rotate(180 56.6350954510205 0)" font-family="sans-serif">OWNS_SKIN</text></g><g class="relationship" transform="translate(325.71028563345186 284.2438889671159) rotate(319.798229942083)"><path class="outline" fill="#A5ABB6" stroke="none" d="M 25 0.5 L 26.094010487794108 0.5 L 26.094010487794108 -0.5 L 25 -0.5 Z M 80.10182298779411 0.5 L 81.19583347558822 0.5 L 81.19583347558822 3.5 L 88.19583347558822 0 L 81.19583347558822 -3.5 L 81.19583347558822 -0.5 L 80.10182298779411 -0.5 Z"/><text text-anchor="middle" pointer-events="none" font-size="8px" fill="#000000" x="53.09791673779411" y="3" font-family="sans-serif">OWNS_SKIN</text></g><g class="relationship" transform="translate(412.1665564951025 211.17809707426088) rotate(304.2718060585016)"><path class="outline" fill="#A5ABB6" stroke="none" d="M 25 0.5 L 28.57193745917175 0.5 L 28.57193745917175 -0.5 L 25 -0.5 Z M 74.57974995917175 0.5 L 78.1516874183435 0.5 L 78.1516874183435 3.5 L 85.1516874183435 0 L 78.1516874183435 -3.5 L 78.1516874183435 -0.5 L 74.57974995917175 -0.5 Z"/><text text-anchor="middle" pointer-events="none" font-size="8px" fill="#000000" x="51.57584370917175" y="3" font-family="sans-serif">SKIN_FOR</text></g><g class="relationship" transform="translate(215.08953281294865 331.44524345020795) rotate(498.75662424969744)"><path class="outline" fill="#A5ABB6" stroke="none" d="M 25 0.5 L 33.11735198865777 0.5 L 33.11735198865777 -0.5 L 25 -0.5 Z M 79.12516448865776 0.5 L 87.24251647731553 0.5 L 87.24251647731553 3.5 L 94.24251647731553 0 L 87.24251647731553 -3.5 L 87.24251647731553 -0.5 L 79.12516448865776 -0.5 Z"/><text text-anchor="middle" pointer-events="none" font-size="8px" fill="#000000" x="56.12125823865777" y="3" transform="rotate(180 56.12125823865777 0)" font-family="sans-serif">SKIN_FOR</text></g><g class="relationship" transform="translate(366.21891694595564 384.9638340233469) rotate(488.50786557712036)"><path class="outline" fill="#A5ABB6" stroke="none" d="M 25 0.5 L 29.129724487995887 0.5 L 29.129724487995887 -0.5 L 25 -0.5 Z M 75.13753698799589 0.5 L 79.26726147599177 0.5 L 79.26726147599177 3.5 L 86.26726147599177 0 L 79.26726147599177 -3.5 L 79.26726147599177 -0.5 L 75.13753698799589 -0.5 Z"/><text text-anchor="middle" pointer-events="none" font-size="8px" fill="#000000" x="52.13363073799589" y="3" transform="rotate(180 52.13363073799589 0)" font-family="sans-serif">SKIN_FOR</text></g><g class="relationship" transform="translate(212.2580520169235 -85.2846069731221) rotate(463.8389459747081)"><path class="outline" fill="#A5ABB6" stroke="none" d="M 25 0.5 L 37.05283408277741 0.5 L 37.05283408277741 -0.5 L 25 -0.5 Z M 95.07236533277741 0.5 L 107.12519941555482 0.5 L 107.12519941555482 3.5 L 114.12519941555482 0 L 107.12519941555482 -3.5 L 107.12519941555482 -0.5 L 95.07236533277741 -0.5 Z"/><text text-anchor="middle" pointer-events="none" font-size="8px" fill="#000000" x="66.06259970777741" y="3" transform="rotate(180 66.06259970777741 0)" font-family="sans-serif">PLANT_AREA</text></g><g class="relationship" transform="translate(212.2580520169235 -85.2846069731221) rotate(520.6931032497822)"><path class="outline" fill="#A5ABB6" stroke="none" d="M 25 0.5 L 26.907043803742766 0.5 L 26.907043803742766 -0.5 L 25 -0.5 Z M 66.69220005374277 0.5 L 68.59924385748553 0.5 L 68.59924385748553 3.5 L 75.59924385748553 0 L 68.59924385748553 -3.5 L 68.59924385748553 -0.5 L 66.69220005374277 -0.5 Z"/><text text-anchor="middle" pointer-events="none" font-size="8px" fill="#000000" x="46.799621928742766" y="3" transform="rotate(180 46.799621928742766 0)" font-family="sans-serif">PLANT…</text></g><g class="relationship" transform="translate(212.2580520169235 -85.2846069731221) rotate(180.47032718167065)"><path class="outline" fill="#A5ABB6" stroke="none" d="M 25 0.5 L 28.80482037193393 0.5 L 28.80482037193393 -0.5 L 25 -0.5 Z M 108.00013287193393 0.5 L 111.80495324386786 0.5 L 111.80495324386786 3.5 L 118.80495324386786 0 L 111.80495324386786 -3.5 L 111.80495324386786 -0.5 L 108.00013287193393 -0.5 Z"/><text text-anchor="middle" pointer-events="none" font-size="8px" fill="#000000" x="68.40247662193393" y="3" transform="rotate(180 68.40247662193393 0)" font-family="sans-serif">SPAWN_LOCATION</text></g><g class="relationship" transform="translate(212.2580520169235 -85.2846069731221) rotate(485.78079856442594)"><path class="outline" fill="#A5ABB6" stroke="none" d="M 25 0.5 L 27.820193036777155 0.5 L 27.820193036777155 -0.5 L 25 -0.5 Z M 64.48816178677716 0.5 L 67.30835482355431 0.5 L 67.30835482355431 3.5 L 74.30835482355431 0 L 67.30835482355431 -3.5 L 67.30835482355431 -0.5 L 64.48816178677716 -0.5 Z"/><text text-anchor="middle" pointer-events="none" font-size="8px" fill="#000000" x="46.154177411777155" y="3" transform="rotate(180 46.154177411777155 0)" font-family="sans-serif">SPAW…</text></g><g class="relationship" transform="translate(27.591577339809152 13.943942426238078) rotate(373.32557425878423)"><path class="outline" fill="#A5ABB6" stroke="none" d="M 25 0.5 L 45.278924382460346 0.5 L 45.278924382460346 -0.5 L 25 -0.5 Z M 103.29845563246035 0.5 L 123.57738001492069 0.5 L 123.57738001492069 3.5 L 130.5773800149207 0 L 123.57738001492069 -3.5 L 123.57738001492069 -0.5 L 103.29845563246035 -0.5 Z"/><text text-anchor="middle" pointer-events="none" font-size="8px" fill="#000000" x="74.28869000746035" y="3" font-family="sans-serif">PLANT_AREA</text></g><g class="relationship" transform="translate(27.591577339809152 13.943942426238078) rotate(323.67587080954405)"><path class="outline" fill="#A5ABB6" stroke="none" d="M 25 0.5 L 27.39758300580995 0.5 L 27.39758300580995 -0.5 L 25 -0.5 Z M 76.96789550580995 0.5 L 79.3654785116199 0.5 L 79.3654785116199 3.5 L 86.3654785116199 0 L 79.3654785116199 -3.5 L 79.3654785116199 -0.5 L 76.96789550580995 -0.5 Z"/><text text-anchor="middle" pointer-events="none" font-size="8px" fill="#000000" x="52.18273925580995" y="3" font-family="sans-serif">PLANT_A…</text></g><g class="relationship" transform="translate(27.591577339809152 13.943942426238078) rotate(292.14627665430487)"><path class="outline" fill="#A5ABB6" stroke="none" d="M 25 0.5 L 25.031506865741434 0.5 L 25.031506865741434 -0.5 L 25 -0.5 Z M 76.37525686574143 0.5 L 76.40676373148287 0.5 L 76.40676373148287 3.5 L 83.40676373148287 0 L 76.40676373148287 -3.5 L 76.40676373148287 -0.5 L 76.37525686574143 -0.5 Z"/><text text-anchor="middle" pointer-events="none" font-size="8px" fill="#000000" x="50.703381865741434" y="3" font-family="sans-serif">SPAWN_L…</text></g><g class="relationship" transform="translate(27.591577339809152 13.943942426238078) rotate(351.6138753535821)"><path class="outline" fill="#A5ABB6" stroke="none" d="M 25 0.5 L 26.14545075188547 0.5 L 26.14545075188547 -0.5 L 25 -0.5 Z M 94.82513825188548 0.5 L 95.97058900377094 0.5 L 95.97058900377094 3.5 L 102.97058900377094 0 L 95.97058900377094 -3.5 L 95.97058900377094 -0.5 L 94.82513825188548 -0.5 Z"/><text text-anchor="middle" pointer-events="none" font-size="8px" fill="#000000" x="60.48529450188547" y="3" font-family="sans-serif">SPAWN_LOCA…</text></g><g class="relationship" transform="translate(79.4437517224811 65.23630661165255) rotate(351.1858371519031)"><path class="outline" fill="#A5ABB6" stroke="none" d="M 25 0.5 L 26.970409094223733 0.5 L 26.970409094223733 -0.5 L 25 -0.5 Z M 66.75556534422373 0.5 L 68.72597443844747 0.5 L 68.72597443844747 3.5 L 75.72597443844747 0 L 68.72597443844747 -3.5 L 68.72597443844747 -0.5 L 66.75556534422373 -0.5 Z"/><text text-anchor="middle" pointer-events="none" font-size="8px" fill="#000000" x="46.86298721922373" y="3" font-family="sans-serif">PLANT…</text></g><g class="relationship" transform="translate(79.4437517224811 65.23630661165255) rotate(287.8994236011272)"><path class="outline" fill="#A5ABB6" stroke="none" d="M 25 0.5 L 29.10241160385599 0.5 L 29.10241160385599 -0.5 L 25 -0.5 Z M 87.12194285385598 0.5 L 91.22435445771198 0.5 L 91.22435445771198 3.5 L 98.22435445771198 0 L 91.22435445771198 -3.5 L 91.22435445771198 -0.5 L 87.12194285385598 -0.5 Z"/><text text-anchor="middle" pointer-events="none" font-size="8px" fill="#000000" x="58.11217722885599" y="3" font-family="sans-serif">PLANT_AREA</text></g><g class="relationship" transform="translate(79.4437517224811 65.23630661165255) rotate(265.85802290989693)"><path class="outline" fill="#A5ABB6" stroke="none" d="M 25 0.5 L 32.95165458525044 0.5 L 32.95165458525044 -0.5 L 25 -0.5 Z M 112.14696708525044 0.5 L 120.09862167050088 0.5 L 120.09862167050088 3.5 L 127.09862167050088 0 L 120.09862167050088 -3.5 L 120.09862167050088 -0.5 L 112.14696708525044 -0.5 Z"/><text text-anchor="middle" pointer-events="none" font-size="8px" fill="#000000" x="72.54931083525044" y="3" transform="rotate(180 72.54931083525044 0)" font-family="sans-serif">SPAWN_LOCATION</text></g><g class="relationship" transform="translate(79.4437517224811 65.23630661165255) rotate(316.8974997005749)"><path class="outline" fill="#A5ABB6" stroke="none" d="M 25 0.5 L 26.466762426369726 0.5 L 26.466762426369726 -0.5 L 25 -0.5 Z M 68.91207492636973 0.5 L 70.37883735273945 0.5 L 70.37883735273945 3.5 L 77.37883735273945 0 L 70.37883735273945 -3.5 L 70.37883735273945 -0.5 L 68.91207492636973 -0.5 Z"/><text text-anchor="middle" pointer-events="none" font-size="8px" fill="#000000" x="47.689418676369726" y="3" font-family="sans-serif">SPAWN…</text></g><g class="relationship" transform="translate(-225.579370224481 53.919512538565634) rotate(304.1395372894068)"><path class="outline" fill="#A5ABB6" stroke="none" d="M 25 0.5 L 26.160834602340046 0.5 L 26.160834602340046 -0.5 L 25 -0.5 Z M 65.04755335234005 0.5 L 66.20838795468009 0.5 L 66.20838795468009 3.5 L 73.20838795468009 0 L 66.20838795468009 -3.5 L 66.20838795468009 -0.5 L 65.04755335234005 -0.5 Z"/><text text-anchor="middle" pointer-events="none" font-size="8px" fill="#000000" x="45.604193977340046" y="3" font-family="sans-serif">OWNS…</text></g><g class="relationship" transform="translate(-225.579370224481 53.919512538565634) rotate(369.3527249485694)"><path class="outline" fill="#A5ABB6" stroke="none" d="M 25 0.5 L 25.881930153235288 0.5 L 25.881930153235288 -0.5 L 25 -0.5 Z M 89.53818015323529 0.5 L 90.42011030647058 0.5 L 90.42011030647058 3.5 L 97.42011030647058 0 L 90.42011030647058 -3.5 L 90.42011030647058 -0.5 L 89.53818015323529 -0.5 Z"/><text text-anchor="middle" pointer-events="none" font-size="8px" fill="#000000" x="57.71005515323529" y="3" font-family="sans-serif">IS_PLAYER_I…</text></g><g class="relationship" transform="translate(-104.7866410184532 73.81423491430286) rotate(335.6643327104746)"><path class="outline" fill="#A5ABB6" stroke="none" d="M 25 0.5 L 42.430836940279534 0.5 L 42.430836940279534 -0.5 L 25 -0.5 Z M 95.85661819027953 0.5 L 113.28745513055907 0.5 L 113.28745513055907 3.5 L 120.28745513055907 0 L 113.28745513055907 -3.5 L 113.28745513055907 -0.5 L 95.85661819027953 -0.5 Z"/><text text-anchor="middle" pointer-events="none" font-size="8px" fill="#000000" x="69.14372756527953" y="3" font-family="sans-serif">PLAYED_ON</text></g><g class="relationship" transform="translate(-104.7866410184532 73.81423491430286) rotate(495.93335722526547)"><path class="outline" fill="#A5ABB6" stroke="none" d="M 25 0.5 L 26.337749950510926 0.5 L 26.337749950510926 -0.5 L 25 -0.5 Z M 91.01743745051093 0.5 L 92.35518740102185 0.5 L 92.35518740102185 3.5 L 99.35518740102185 0 L 92.35518740102185 -3.5 L 92.35518740102185 -0.5 L 91.01743745051093 -0.5 Z"/><text text-anchor="middle" pointer-events="none" font-size="8px" fill="#000000" x="58.677593700510926" y="3" transform="rotate(180 58.677593700510926 0)" font-family="sans-serif">INCLUDES_C…</text></g><g class="relationship" transform="translate(-104.7866410184532 73.81423491430286) rotate(237.01169337771034)"><path class="outline" fill="#A5ABB6" stroke="none" d="M 25 0.5 L 27.362005522266593 0.5 L 27.362005522266593 -0.5 L 25 -0.5 Z M 86.2643492722666 0.5 L 88.62635479453319 0.5 L 88.62635479453319 3.5 L 95.62635479453319 0 L 88.62635479453319 -3.5 L 88.62635479453319 -0.5 L 86.2643492722666 -0.5 Z"/><text text-anchor="middle" pointer-events="none" font-size="8px" fill="#000000" x="56.81317739726659" y="3" transform="rotate(180 56.81317739726659 0)" font-family="sans-serif">INCLUDES_…</text></g><g class="relationship" transform="translate(-100.3084286727826 199.45265428454155) rotate(420.53539333503784)"><path class="outline" fill="#A5ABB6" stroke="none" d="M 25 0.5 L 25.958903310418982 0.5 L 25.958903310418982 -0.5 L 25 -0.5 Z M 75.07218456041898 0.5 L 76.03108787083796 0.5 L 76.03108787083796 3.5 L 83.03108787083796 0 L 76.03108787083796 -3.5 L 76.03108787083796 -0.5 L 75.07218456041898 -0.5 Z"/><text text-anchor="middle" pointer-events="none" font-size="8px" fill="#000000" x="50.51554393541898" y="3" font-family="sans-serif">OWNS_C…</text></g><g class="relationship" transform="translate(-100.3084286727826 199.45265428454155) rotate(354.1647322708337)"><path class="outline" fill="#A5ABB6" stroke="none" d="M 25 0.5 L 26.24207091025159 0.5 L 26.24207091025159 -0.5 L 25 -0.5 Z M 83.22644591025158 0.5 L 84.46851682050318 0.5 L 84.46851682050318 3.5 L 91.46851682050318 0 L 84.46851682050318 -3.5 L 84.46851682050318 -0.5 L 83.22644591025158 -0.5 Z"/><text text-anchor="middle" pointer-events="none" font-size="8px" fill="#000000" x="54.73425841025159" y="3" font-family="sans-serif">IS_PLAYER…</text></g><g class="relationship" transform="translate(-100.3084286727826 199.45265428454155) rotate(202.6477886536054)"><path class="outline" fill="#A5ABB6" stroke="none" d="M 25 0.5 L 25.6676536565162 0.5 L 25.6676536565162 -0.5 L 25 -0.5 Z M 69.0035911565162 0.5 L 69.6712448130324 0.5 L 69.6712448130324 3.5 L 76.6712448130324 0 L 69.6712448130324 -3.5 L 69.6712448130324 -0.5 L 69.0035911565162 -0.5 Z"/><text text-anchor="middle" pointer-events="none" font-size="8px" fill="#000000" x="47.3356224065162" y="3" transform="rotate(180 47.3356224065162 0)" font-family="sans-serif">OWNS_…</text></g><g class="relationship" transform="translate(-100.3084286727826 199.45265428454155) rotate(267.9586332667115)"><path class="outline" fill="#A5ABB6" stroke="none" d="M 25 0.5 L 27.53097698146503 0.5 L 27.53097698146503 -0.5 L 25 -0.5 Z M 91.18722698146503 0.5 L 93.71820396293006 0.5 L 93.71820396293006 3.5 L 100.71820396293006 0 L 93.71820396293006 -3.5 L 93.71820396293006 -0.5 L 91.18722698146503 -0.5 Z"/><text text-anchor="middle" pointer-events="none" font-size="8px" fill="#000000" x="59.35910198146503" y="3" transform="rotate(180 59.35910198146503 0)" font-family="sans-serif">IS_PLAYER_I…</text></g><g class="relationship" transform="translate(15.556585140539969 187.6114556794001) rotate(297.567259094781)"><path class="outline" fill="#A5ABB6" stroke="none" d="M 25 0.5 L 38.81110368716317 0.5 L 38.81110368716317 -0.5 L 25 -0.5 Z M 92.23688493716317 0.5 L 106.04798862432634 0.5 L 106.04798862432634 3.5 L 113.04798862432634 0 L 106.04798862432634 -3.5 L 106.04798862432634 -0.5 L 92.23688493716317 -0.5 Z"/><text text-anchor="middle" pointer-events="none" font-size="8px" fill="#000000" x="65.52399431216317" y="3" font-family="sans-serif">PLAYED_ON</text></g><g class="relationship" transform="translate(15.556585140539969 187.6114556794001) rotate(480.6389683345306)"><path class="outline" fill="#A5ABB6" stroke="none" d="M 25 0.5 L 25.70133150442885 0.5 L 25.70133150442885 -0.5 L 25 -0.5 Z M 90.38101900442885 0.5 L 91.0823505088577 0.5 L 91.0823505088577 3.5 L 98.0823505088577 0 L 91.0823505088577 -3.5 L 91.0823505088577 -0.5 L 90.38101900442885 -0.5 Z"/><text text-anchor="middle" pointer-events="none" font-size="8px" fill="#000000" x="58.04117525442885" y="3" transform="rotate(180 58.04117525442885 0)" font-family="sans-serif">INCLUDES_C…</text></g><g class="relationship" transform="translate(316.6299322723063 -139.70292278551483) rotate(512.4629741608342)"><path class="outline" fill="#A5ABB6" stroke="none" d="M 25 0.5 L 28.6404068270147 0.5 L 28.6404068270147 -0.5 L 25 -0.5 Z M 82.0661880770147 0.5 L 85.7065949040294 0.5 L 85.7065949040294 3.5 L 92.7065949040294 0 L 85.7065949040294 -3.5 L 85.7065949040294 -0.5 L 82.0661880770147 -0.5 Z"/><text text-anchor="middle" pointer-events="none" font-size="8px" fill="#000000" x="55.3532974520147" y="3" transform="rotate(180 55.3532974520147 0)" font-family="sans-serif">PLAYED_ON</text></g></g><g class="layer nodes"><g class="node" transform="translate(325.71028563345186,284.2438889671159)"><circle class="outline" cx="0" cy="0" r="25" fill="#F16667" stroke="#eb2728" stroke-width="2px"/><text text-anchor="middle" pointer-events="none" font-family="sans-serif" dy="1.5625" font-size="25" fill="#FFFFFF"/><text text-anchor="middle" pointer-events="none" x="0" y="5" font-size="10px" fill="#FFFFFF" font-family="sans-serif"> GabeN</text></g><g class="node" transform="translate(412.1665564951025,211.17809707426088)"><circle class="outline" cx="0" cy="0" r="25" fill="#A5ABB6" stroke="#9AA1AC" stroke-width="2px"/><text text-anchor="middle" pointer-events="none" font-family="sans-serif" dy="1.5625" font-size="25" fill="#FFFFFF"/><text text-anchor="middle" pointer-events="none" x="0" y="5" font-size="10px" fill="#FFFFFF" font-family="sans-serif"> Fade</text></g><g class="node" transform="translate(215.08953281294865,331.44524345020795)"><circle class="outline" cx="0" cy="0" r="25" fill="#A5ABB6" stroke="#9AA1AC" stroke-width="2px"/><text text-anchor="middle" pointer-events="none" font-family="sans-serif" dy="1.5625" font-size="25" fill="#FFFFFF"/><text text-anchor="middle" pointer-events="none" font-family="sans-serif" dy="1.5625" font-size="25" fill="#FFFFFF"/><text text-anchor="middle" pointer-events="none" x="0" y="0" font-size="10px" fill="#FFFFFF" font-family="sans-serif"> Glock-18</text><text text-anchor="middle" pointer-events="none" x="0" y="10" font-size="10px" fill="#FFFFFF" font-family="sans-serif"> | Neo-N…</text></g><g class="node" transform="translate(366.21891694595564,384.9638340233469)"><circle class="outline" cx="0" cy="0" r="25" fill="#A5ABB6" stroke="#9AA1AC" stroke-width="2px"/><text text-anchor="middle" pointer-events="none" font-family="sans-serif" dy="1.5625" font-size="25" fill="#FFFFFF"/><text text-anchor="middle" pointer-events="none" font-family="sans-serif" dy="1.5625" font-size="25" fill="#FFFFFF"/><text text-anchor="middle" pointer-events="none" font-family="sans-serif" dy="1.5625" font-size="25" fill="#FFFFFF"/><text text-anchor="middle" pointer-events="none" font-family="sans-serif" dy="1.5625" font-size="25" fill="#FFFFFF"/><text text-anchor="middle" pointer-events="none" x="0" y="-10" font-size="10px" fill="#FFFFFF" font-family="sans-serif"> Driver</text><text text-anchor="middle" pointer-events="none" x="0" y="0" font-size="10px" fill="#FFFFFF" font-family="sans-serif"> Gloves |</text><text text-anchor="middle" pointer-events="none" x="0" y="10" font-size="10px" fill="#FFFFFF" font-family="sans-serif"> Snow</text><text text-anchor="middle" pointer-events="none" x="0" y="20" font-size="10px" fill="#FFFFFF" font-family="sans-serif"> Leo…</text></g><g class="node" transform="translate(154.19386397940556,-4.719729977593055)"><circle class="outline" cx="0" cy="0" r="25" fill="#A5ABB6" stroke="#9AA1AC" stroke-width="2px"/><text text-anchor="middle" pointer-events="none" font-family="sans-serif" dy="1.5625" font-size="25" fill="#FFFFFF"/><text text-anchor="middle" pointer-events="none" x="0" y="5" font-size="10px" fill="#FFFFFF" font-family="sans-serif"> point({sri…</text></g><g class="node" transform="translate(68.45794380119183,-86.46505375925082)"><circle class="outline" cx="0" cy="0" r="25" fill="#A5ABB6" stroke="#9AA1AC" stroke-width="2px"/><text text-anchor="middle" pointer-events="none" font-family="sans-serif" dy="1.5625" font-size="25" fill="#FFFFFF"/><text text-anchor="middle" pointer-events="none" x="0" y="5" font-size="10px" fill="#FFFFFF" font-family="sans-serif"> point({sri…</text></g><g class="node" transform="translate(117.31639289879693,-52.02368051886808)"><circle class="outline" cx="0" cy="0" r="25" fill="#A5ABB6" stroke="#9AA1AC" stroke-width="2px"/><text text-anchor="middle" pointer-events="none" font-family="sans-serif" dy="1.5625" font-size="25" fill="#FFFFFF"/><text text-anchor="middle" pointer-events="none" x="0" y="5" font-size="10px" fill="#FFFFFF" font-family="sans-serif"> point({sri…</text></g><g class="node" transform="translate(178.98020628536858,49.8020544553281)"><circle class="outline" cx="0" cy="0" r="25" fill="#A5ABB6" stroke="#9AA1AC" stroke-width="2px"/><text text-anchor="middle" pointer-events="none" font-family="sans-serif" dy="1.5625" font-size="25" fill="#FFFFFF"/><text text-anchor="middle" pointer-events="none" x="0" y="5" font-size="10px" fill="#FFFFFF" font-family="sans-serif"> point({sri…</text></g><g class="node" transform="translate(212.2580520169235,-85.2846069731221)"><circle class="outline" cx="0" cy="0" r="25" fill="#A5ABB6" stroke="#9AA1AC" stroke-width="2px"/><text text-anchor="middle" pointer-events="none" font-family="sans-serif" dy="1.5625" font-size="25" fill="#FFFFFF"/><text text-anchor="middle" pointer-events="none" x="0" y="5" font-size="10px" fill="#FFFFFF" font-family="sans-serif"> Dust</text></g><g class="node" transform="translate(27.591577339809152,13.943942426238078)"><circle class="outline" cx="0" cy="0" r="25" fill="#A5ABB6" stroke="#9AA1AC" stroke-width="2px"/><text text-anchor="middle" pointer-events="none" font-family="sans-serif" dy="1.5625" font-size="25" fill="#FFFFFF"/><text text-anchor="middle" pointer-events="none" x="0" y="5" font-size="10px" fill="#FFFFFF" font-family="sans-serif"> Inferno</text></g><g class="node" transform="translate(79.4437517224811,65.23630661165255)"><circle class="outline" cx="0" cy="0" r="25" fill="#A5ABB6" stroke="#9AA1AC" stroke-width="2px"/><text text-anchor="middle" pointer-events="none" font-family="sans-serif" dy="1.5625" font-size="25" fill="#FFFFFF"/><text text-anchor="middle" pointer-events="none" x="0" y="5" font-size="10px" fill="#FFFFFF" font-family="sans-serif"> Nuke</text></g><g class="node" transform="translate(474.19511706821913,120.1514421080607)"><circle class="outline" cx="0" cy="0" r="25" fill="#4C8EDA" stroke="#2870c2" stroke-width="2px"/><text text-anchor="middle" pointer-events="none" font-family="sans-serif" dy="1.5625" font-size="25" fill="#FFFFFF"/><text text-anchor="middle" pointer-events="none" x="0" y="5" font-size="10px" fill="#FFFFFF" font-family="sans-serif"> Knife</text></g><g class="node" transform="translate(125.42917289427257,410.05693211732876)"><circle class="outline" cx="0" cy="0" r="25" fill="#FFC454" stroke="#d7a013" stroke-width="2px"/><text text-anchor="middle" pointer-events="none" font-family="sans-serif" dy="1.5625" font-size="25" fill="#2A2C34"/><text text-anchor="middle" pointer-events="none" x="0" y="5" font-size="10px" fill="#2A2C34" font-family="sans-serif"> Glock 18</text></g><g class="node" transform="translate(296.9414645729497,472.0329908417784)"><circle class="outline" cx="0" cy="0" r="25" fill="#DA7194" stroke="#cc3c6c" stroke-width="2px"/><text text-anchor="middle" pointer-events="none" font-family="sans-serif" dy="1.5625" font-size="25" fill="#FFFFFF"/><text text-anchor="middle" pointer-events="none" x="0" y="5" font-size="10px" fill="#FFFFFF" font-family="sans-serif"> Gloves</text></g><g class="node" transform="translate(129.0547336810009,-327.67755017125677)"><circle class="outline" cx="0" cy="0" r="25" fill="#569480" stroke="#447666" stroke-width="2px"/><text text-anchor="middle" pointer-events="none" font-family="sans-serif" dy="1.5625" font-size="25" fill="#FFFFFF"/><text text-anchor="middle" pointer-events="none" x="0" y="5" font-size="10px" fill="#FFFFFF" font-family="sans-serif"> Flashba…</text></g><g class="node" transform="translate(-154.9960968450097,-246.0023281722079)"><circle class="outline" cx="0" cy="0" r="25" fill="#A5ABB6" stroke="#9AA1AC" stroke-width="2px"/><text text-anchor="middle" pointer-events="none" font-family="sans-serif" dy="1.5625" font-size="25" fill="#FFFFFF"/><text text-anchor="middle" pointer-events="none" x="0" y="5" font-size="10px" fill="#FFFFFF" font-family="sans-serif"> Bomb</text></g><g class="node" transform="translate(-225.579370224481,53.919512538565634)"><circle class="outline" cx="0" cy="0" r="25" fill="#F16667" stroke="#eb2728" stroke-width="2px"/><text text-anchor="middle" pointer-events="none" font-family="sans-serif" dy="1.5625" font-size="25" fill="#FFFFFF"/><text text-anchor="middle" pointer-events="none" font-family="sans-serif" dy="1.5625" font-size="25" fill="#FFFFFF"/><text text-anchor="middle" pointer-events="none" x="0" y="0" font-size="10px" fill="#FFFFFF" font-family="sans-serif"> FaZe</text><text text-anchor="middle" pointer-events="none" x="0" y="10" font-size="10px" fill="#FFFFFF" font-family="sans-serif"> Jimmy</text></g><g class="node" transform="translate(-104.7866410184532,73.81423491430286)"><circle class="outline" cx="0" cy="0" r="25" fill="#D9C8AE" stroke="#c0a378" stroke-width="2px"/><text text-anchor="middle" pointer-events="none" font-family="sans-serif" dy="1.5625" font-size="25" fill="#2A2C34"/><text text-anchor="middle" pointer-events="none" font-family="sans-serif" dy="1.5625" font-size="25" fill="#2A2C34"/><text text-anchor="middle" pointer-events="none" x="0" y="0" font-size="10px" fill="#2A2C34" font-family="sans-serif"> Match</text><text text-anchor="middle" pointer-events="none" x="0" y="10" font-size="10px" fill="#2A2C34" font-family="sans-serif"> #123456</text></g><g class="node" transform="translate(-170.4638144085688,-27.364944596608836)"><circle class="outline" cx="0" cy="0" r="25" fill="#8DCC93" stroke="#5db665" stroke-width="2px"/><text text-anchor="middle" pointer-events="none" font-family="sans-serif" dy="1.5625" font-size="25" fill="#2A2C34"/><text text-anchor="middle" pointer-events="none" font-family="sans-serif" dy="1.5625" font-size="25" fill="#2A2C34"/><text text-anchor="middle" pointer-events="none" x="0" y="0" font-size="10px" fill="#2A2C34" font-family="sans-serif"> FaZe</text><text text-anchor="middle" pointer-events="none" x="0" y="10" font-size="10px" fill="#2A2C34" font-family="sans-serif"> Jimmy</text></g><g class="node" transform="translate(-100.3084286727826,199.45265428454155)"><circle class="outline" cx="0" cy="0" r="25" fill="#F16667" stroke="#eb2728" stroke-width="2px"/><text text-anchor="middle" pointer-events="none" font-family="sans-serif" dy="1.5625" font-size="25" fill="#FFFFFF"/><text text-anchor="middle" pointer-events="none" x="0" y="5" font-size="10px" fill="#FFFFFF" font-family="sans-serif"> Albert</text></g><g class="node" transform="translate(-194.13973944794708,160.30259502473876)"><circle class="outline" cx="0" cy="0" r="25" fill="#8DCC93" stroke="#5db665" stroke-width="2px"/><text text-anchor="middle" pointer-events="none" font-family="sans-serif" dy="1.5625" font-size="25" fill="#2A2C34"/><text text-anchor="middle" pointer-events="none" x="0" y="5" font-size="10px" fill="#2A2C34" font-family="sans-serif"> Albert</text></g><g class="node" transform="translate(15.556585140539969,187.6114556794001)"><circle class="outline" cx="0" cy="0" r="25" fill="#D9C8AE" stroke="#c0a378" stroke-width="2px"/><text text-anchor="middle" pointer-events="none" font-family="sans-serif" dy="1.5625" font-size="25" fill="#2A2C34"/><text text-anchor="middle" pointer-events="none" font-family="sans-serif" dy="1.5625" font-size="25" fill="#2A2C34"/><text text-anchor="middle" pointer-events="none" x="0" y="0" font-size="10px" fill="#2A2C34" font-family="sans-serif"> Match</text><text text-anchor="middle" pointer-events="none" x="0" y="10" font-size="10px" fill="#2A2C34" font-family="sans-serif"> #234567</text></g><g class="node" transform="translate(-47.16946830445406,293.5109704375002)"><circle class="outline" cx="0" cy="0" r="25" fill="#8DCC93" stroke="#5db665" stroke-width="2px"/><text text-anchor="middle" pointer-events="none" font-family="sans-serif" dy="1.5625" font-size="25" fill="#2A2C34"/><text text-anchor="middle" pointer-events="none" x="0" y="5" font-size="10px" fill="#2A2C34" font-family="sans-serif"> Albert</text></g><g class="node" transform="translate(316.6299322723063,-139.70292278551483)"><circle class="outline" cx="0" cy="0" r="25" fill="#D9C8AE" stroke="#c0a378" stroke-width="2px"/><text text-anchor="middle" pointer-events="none" font-family="sans-serif" dy="1.5625" font-size="25" fill="#2A2C34"/><text text-anchor="middle" pointer-events="none" font-family="sans-serif" dy="1.5625" font-size="25" fill="#2A2C34"/><text text-anchor="middle" pointer-events="none" x="0" y="0" font-size="10px" fill="#2A2C34" font-family="sans-serif"> Match</text><text text-anchor="middle" pointer-events="none" x="0" y="10" font-size="10px" fill="#2A2C34" font-family="sans-serif"> #111111</text></g></g></svg>